<mxfile host="65bd71144e">
    <diagram id="x748CZraIOu2HfYH2mVq" name="Page-1">
        <mxGraphModel dx="905" dy="1729" grid="1" gridSize="10" guides="1" tooltips="1" connect="1" arrows="1" fold="1" page="1" pageScale="1" pageWidth="850" pageHeight="1100" math="0" shadow="0">
            <root>
                <mxCell id="0"/>
                <mxCell id="1" parent="0"/>
                <mxCell id="2" value="" style="rounded=1;whiteSpace=wrap;html=1;arcSize=3;fillColor=#60a917;strokeColor=#2D7600;fontColor=#ffffff;" vertex="1" parent="1">
                    <mxGeometry x="10" y="10" width="180" height="330" as="geometry"/>
                </mxCell>
                <mxCell id="10" value="internal&lt;br&gt;&lt;br&gt;protocol" style="edgeStyle=none;html=1;exitX=1;exitY=0.5;exitDx=0;exitDy=0;entryX=0;entryY=0.5;entryDx=0;entryDy=0;fontSize=21;endArrow=open;endFill=0;endSize=16;labelBackgroundColor=none;" edge="1" parent="1" source="3" target="4">
                    <mxGeometry relative="1" as="geometry"/>
                </mxCell>
                <mxCell id="3" value="Simpler&amp;nbsp;&lt;br style=&quot;font-size: 21px;&quot;&gt;API" style="rounded=1;whiteSpace=wrap;html=1;arcSize=3;fontSize=21;fillColor=#1ba1e2;strokeColor=#006EAF;fontColor=#ffffff;" vertex="1" parent="1">
                    <mxGeometry x="80" y="125" width="100" height="100" as="geometry"/>
                </mxCell>
                <mxCell id="4" value="" style="rounded=1;whiteSpace=wrap;html=1;arcSize=3;fillColor=#fa6800;strokeColor=#C73500;fontColor=#000000;" vertex="1" parent="1">
                    <mxGeometry x="300" y="10" width="105" height="330" as="geometry"/>
                </mxCell>
                <mxCell id="11" value="legacy&lt;br&gt;&lt;br&gt;protocol" style="edgeStyle=none;html=1;exitX=1;exitY=0.5;exitDx=0;exitDy=0;entryX=0;entryY=0.5;entryDx=0;entryDy=0;fontSize=21;endArrow=open;endFill=0;endSize=16;labelBackgroundColor=none;" edge="1" parent="1" source="5" target="6">
                    <mxGeometry relative="1" as="geometry"/>
                </mxCell>
                <mxCell id="5" value="Old &lt;br style=&quot;font-size: 21px;&quot;&gt;API" style="rounded=1;whiteSpace=wrap;html=1;arcSize=3;fontSize=21;fillColor=#f0a30a;strokeColor=#BD7000;fontColor=#000000;" vertex="1" parent="1">
                    <mxGeometry x="316.25" y="115" width="72.5" height="120" as="geometry"/>
                </mxCell>
                <mxCell id="6" value="" style="rounded=1;whiteSpace=wrap;html=1;arcSize=3;fillColor=#fa6800;strokeColor=#C73500;fontColor=#000000;" vertex="1" parent="1">
                    <mxGeometry x="520" y="10" width="105" height="330" as="geometry"/>
                </mxCell>
                <mxCell id="8" value="Our System" style="text;html=1;strokeColor=none;fillColor=none;align=center;verticalAlign=middle;whiteSpace=wrap;rounded=0;fontSize=21;" vertex="1" parent="1">
                    <mxGeometry x="40" y="20" width="120" height="20" as="geometry"/>
                </mxCell>
                <mxCell id="9" value="Legacy&lt;br&gt;System" style="text;html=1;align=center;verticalAlign=middle;whiteSpace=wrap;rounded=0;fontSize=21;" vertex="1" parent="1">
                    <mxGeometry x="302.5" y="30" width="100" height="20" as="geometry"/>
                </mxCell>
                <mxCell id="12" value="Legacy&lt;br&gt;System" style="text;html=1;align=center;verticalAlign=middle;whiteSpace=wrap;rounded=0;fontSize=21;" vertex="1" parent="1">
                    <mxGeometry x="522.5" y="30" width="100" height="20" as="geometry"/>
                </mxCell>
            </root>
        </mxGraphModel>
    </diagram>
</mxfile>